<svg height="400" width="400" version="1.1" xmlns="http://www.w3.org/2000/svg" viewBox="0 0 400 400" xmlns:xlink="http://www.w3.org/1999/xlink"><g><path d="M286.719 38.658 C 267.503 42.939,273.783 37.346,158.519 152.844 L 57.273 254.297 47.379 300.781 C 41.938 326.348,37.490 348.848,37.496 350.781 C 37.516 357.666,42.537 362.492,49.685 362.497 C 55.325 362.501,144.261 343.268,147.247 341.398 C 150.806 339.170,348.644 140.775,351.352 136.719 C 373.046 104.222,362.338 60.796,328.516 44.104 C 316.304 38.078,299.282 35.860,286.719 38.658 M309.754 64.483 C 333.320 70.621,344.354 99.145,331.188 119.896 C 329.834 122.030,322.351 130.215,314.558 138.086 L 300.391 152.397 274.219 126.180 L 248.047 99.963 263.672 84.477 C 284.725 63.612,292.859 60.082,309.754 64.483 M256.058 144.729 L 282.028 170.709 207.995 244.739 L 133.962 318.770 100.908 325.865 C 82.729 329.767,67.695 332.800,67.500 332.604 C 67.305 332.409,70.293 317.548,74.141 299.581 L 81.137 266.913 155.216 192.831 C 195.959 152.087,229.472 118.750,229.690 118.750 C 229.908 118.750,241.774 130.441,256.058 144.729" stroke="none" fill="#000000" fill-rule="evenodd"></path></g></svg>
